# xmcd
#
# Track frame offsets: 
#        150
#        24707
#        49047
#        69420
#        93120
#        113732
#        135170
#        159125
#        185220
#        212520
#        235162
#
# Disc length: 3432 seconds
#
# Revision: 0
# Processed by: cddbd v1.5.2PL0 Copyright (c) Steve Scherf et al.
# Submitted via: ExactAudioCopyFreeDBPlugin 1.0
#
DISCID=850d660b
DTITLE=Jeff Redd - Down Low (2015 Reissue)
DYEAR=1994
DGENRE=R&B
TTITLE0=Show You
TTITLE1=You Called And Told Me
TTITLE2=Dreamer
TTITLE3=I Still Do Care
TTITLE4=Sex Ain't The Only Thing
TTITLE5=Why (My Guilt)
TTITLE6=Hard Soft, Slow Fast
TTITLE7=Down Low
TTITLE8=Let's Spend The Night
TTITLE9=Take It Off
TTITLE10=Hold On (Bonus Track)
EXTD=
EXTT0=
EXTT1=
EXTT2=
EXTT3=
EXTT4=
EXTT5=
EXTT6=
EXTT7=
EXTT8=
EXTT9=
EXTT10=
PLAYORDER=
